<?xml version="1.0" encoding="UTF-8"?>
<svg width="1440px" height="500px" viewBox="0 0 1440 500" version="1.1" xmlns="http://www.w3.org/2000/svg" xmlns:xlink="http://www.w3.org/1999/xlink">
    <!-- Generator: Sketch 51.3 (57544) - http://www.bohemiancoding.com/sketch -->
    <title>bg_sdk_full</title>
    <desc>Created with Sketch.</desc>
    <defs>
        <linearGradient x1="-1.11022302e-14%" y1="1.72254642e-14%" x2="100%" y2="100%" id="linearGradient-1">
            <stop stop-color="#3677FF" offset="0%"></stop>
            <stop stop-color="#1ECFF7" offset="100%"></stop>
        </linearGradient>
        <linearGradient x1="136.581668%" y1="105.122854%" x2="0%" y2="0%" id="linearGradient-2">
            <stop stop-color="#3677FF" offset="0%"></stop>
            <stop stop-color="#1ECFF7" offset="100%"></stop>
        </linearGradient>
        <filter x="-5.6%" y="-16.9%" width="111.2%" height="133.7%" filterUnits="objectBoundingBox" id="filter-3">
            <feGaussianBlur stdDeviation="3" in="SourceGraphic"></feGaussianBlur>
        </filter>
        <linearGradient x1="104.123992%" y1="-6.13983898%" x2="0%" y2="100%" id="linearGradient-4">
            <stop stop-color="#3677FF" offset="0%"></stop>
            <stop stop-color="#1ECFF7" offset="100%"></stop>
        </linearGradient>
        <linearGradient x1="-32.1585362%" y1="-30.0790475%" x2="81.9353642%" y2="93.1985356%" id="linearGradient-5">
            <stop stop-color="#3677FF" offset="0%"></stop>
            <stop stop-color="#1ECFF7" offset="100%"></stop>
        </linearGradient>
        <linearGradient x1="100%" y1="38.7250966%" x2="0%" y2="50%" id="linearGradient-6">
            <stop stop-color="#F8F8FA" offset="0%"></stop>
            <stop stop-color="#F8F8FA" offset="100%"></stop>
        </linearGradient>
        <linearGradient x1="-1.11022302e-14%" y1="1.72254642e-14%" x2="100%" y2="100%" id="linearGradient-7">
            <stop stop-color="#1ECFF7" offset="0%"></stop>
            <stop stop-color="#3677FF" offset="100%"></stop>
        </linearGradient>
        <linearGradient x1="100%" y1="0%" x2="-1.11022302e-14%" y2="100%" id="linearGradient-8">
            <stop stop-color="#3677FF" offset="0%"></stop>
            <stop stop-color="#1ECFF7" offset="100%"></stop>
        </linearGradient>
    </defs>
    <g id="OZ-desktop" stroke="none" stroke-width="1" fill="none" fill-rule="evenodd">
        <g id="Group-22" transform="translate(-1.000000, 10.000000)">
            <path d="M81,326.646438 L81,415.64191 C81,418.955618 83.6862915,421.64191 87,421.64191 C87.5339303,421.64191 88.0654717,421.570641 88.5805437,421.429991 L158.159947,402.430035 C163.378812,401.004926 166.998796,396.263958 166.998859,390.854014 L166.999907,301.858186 C166.999946,298.544478 164.313687,295.858154 160.999978,295.858115 C160.466024,295.858109 159.934459,295.929378 159.419364,296.070034 L89.8389127,315.070276 C84.6199965,316.495399 81,321.236442 81,326.646438 Z" id="Fill-1-Copy-16" fill-opacity="0.2" fill="url(#linearGradient-1)" opacity="0.6"></path>
            <g id="Group-11-Copy" transform="translate(1286.000000, 235.397310)">
                <path d="M154,200.60269 L9.31858813,161.281661 C4.0767857,159.857061 0.445634925,155.088988 0.465832635,149.657085 L0.997815993,6.58730431 C1.01013743,3.27361872 3.70639886,0.597334287 7.02008445,0.609655726 C7.53652006,0.611576014 8.05054673,0.680164013 8.54941796,0.813718924 L153.972042,39.7454195 L154,200.60269 Z" id="Mask" fill="url(#linearGradient-2)"></path>
                <path d="M-51.4176275,70.999401 L-62,110.974828 L71.44238,111.004088 C79.6107925,111.005879 86.7563599,105.507122 88.8468644,97.6107456 L99.4301366,57.6349886 L-34.0130557,57.6057286 C-42.1815953,57.6039375 -49.3272405,63.1028623 -51.4176275,70.999401 Z" id="Fill-1-Copy-13" fill-opacity="0.5" fill="#2264ED" style="mix-blend-mode: multiply;" opacity="0.6" filter="url(#filter-3)" transform="translate(18.715068, 84.304908) scale(-1, 1) rotate(-15.000000) translate(-18.715068, -84.304908) "></path>
            </g>
            <path d="M371.000434,299.326431 L371.001962,363.768121 C371.002041,367.08183 373.688396,369.768057 377.002105,369.767979 C377.536617,369.767966 378.068731,369.696529 378.58432,369.555564 L510.164715,333.580761 C515.381837,332.154372 519,327.41419 519,322.005591 L519,248.403501 C519,245.089792 516.313708,242.403501 513,242.403501 C512.46544,242.403501 511.933278,242.474938 511.417642,242.615915 L388.671004,276.175521 C378.236556,279.028356 371.000178,288.509021 371.000434,299.326431 Z" id="Fill-1-Copy-18" fill-opacity="0.5" fill="url(#linearGradient-4)" opacity="0.866001674"></path>
            <path d="M112,358.688477 L112,396.14191 C112,399.455618 114.686292,402.14191 118,402.14191 C118.53393,402.14191 119.065472,402.070641 119.580544,401.929991 L174.665842,386.887921 C179.884676,385.462821 183.504651,380.721899 183.504754,375.311988 L183.505468,337.858245 C183.505531,334.544537 180.819291,331.858194 177.505583,331.858131 C176.971614,331.858121 176.440033,331.92939 175.924925,332.07005 L120.838913,347.112315 C115.619996,348.537437 112,353.27848 112,358.688477 Z" id="Fill-1-Copy-19" fill="url(#linearGradient-1)"></path>
            <path d="M410.028218,331.804169 L410.331242,431 L558,391.433516 L557.718216,298.589465 C557.698102,291.962079 552.309238,286.605826 545.681851,286.625941 C544.645384,286.629086 543.613691,286.7665 542.612534,287.034751 L418.922424,320.176377 C413.663011,321.585588 410.011584,326.35926 410.028218,331.804169 Z" id="Fill-1-Copy-25" fill-opacity="0.5" fill="#FFFFFF" transform="translate(484.000000, 357.000000) scale(-1, 1) translate(-484.000000, -357.000000) "></path>
            <path d="M1105.52786,167.096126 L1321.85912,109.301872 C1332.516,106.454818 1339.86002,96.7102151 1339.6607,85.6813825 L1339.0339,51 L1123.26575,108.643818 C1112.74835,111.453608 1105.43941,120.990432 1105.4603,131.876671 L1105.52786,167.096126 Z" id="Fill-1-Copy-20" stroke="url(#linearGradient-1)" opacity="0.8"></path>
            <path d="M167.966364,27.4117254 L168.185305,70.0776037 C168.219314,76.7049334 173.619395,82.0498765 180.246725,82.0158681 C181.284948,82.0105404 182.31809,81.8704975 183.320267,81.5992478 L255.966364,61.9368256 L255.748803,19.2709624 C255.715009,12.6436316 250.3151,7.29851383 243.68777,7.33230782 C242.649416,7.33760257 241.616142,7.47764646 240.613839,7.74893008 L167.966364,27.4117254 Z" id="Fill-1-Copy-21" fill-opacity="0.4" fill="url(#linearGradient-5)"></path>
            <path d="M1276,17.2338655 L1276.10382,31.4458403 C1276.15223,38.0730805 1281.56391,43.4062754 1288.19115,43.3578646 C1289.21888,43.3503573 1290.24138,43.2108525 1291.23355,42.9427758 L1340,29.7665043 L1339.89684,15.5549059 C1339.84874,8.92766344 1334.4373,3.59421916 1327.81006,3.64232463 C1326.78215,3.64978597 1325.75945,3.78929247 1324.7671,4.05741749 L1276,17.2338655 Z" id="Fill-1-Copy-26" fill-opacity="0.4" fill="url(#linearGradient-5)"></path>
            <path d="M209.966364,49.2241663 L210.185725,92.1094645 C210.219625,98.7367948 215.619618,104.081827 222.246948,104.047927 C223.27723,104.042658 224.302543,103.904725 225.297588,103.637534 L297.966364,84.1243807 L297.748386,41.2390986 C297.7147,34.6117672 292.314879,29.2665611 285.687548,29.3002466 C284.657137,29.305484 283.631691,29.4434174 282.636521,29.7106425 L209.966364,49.2241663 Z" id="Fill-1-Copy-27" fill-opacity="0.5" fill="#F8F8FA"></path>
            <path d="M1348.95786,340.833692 L1348.83299,381.980741 L1219.41748,347.578482 C1211.5117,345.476904 1206.0172,338.308652 1206.04187,330.128343 L1206.16596,288.980741 L1335.58225,323.383209 C1343.48816,325.48482 1348.98269,332.653256 1348.95786,340.833692 Z" id="Fill-1-Copy-28" fill-opacity="0.5" fill="url(#linearGradient-6)"></path>
            <path d="M111.912331,170.725101 L112,207.5 L0.135161802,177.525907 L0.284418389,143.071782 L0.375702156,122 L94.1277001,147.120772 C104.771909,149.972879 112.106144,159.707109 111.912331,170.725101 Z" id="Fill-1-Copy-29" stroke="url(#linearGradient-1)" opacity="0.5"></path>
            <path d="M1349,275.5 L1440,251.01733 L1439.66471,140.543003 C1439.64459,133.915617 1434.25573,128.559364 1427.62834,128.579478 C1426.60347,128.582589 1425.58322,128.716981 1424.5925,128.979372 L1349,149 L1349,275.5 Z" id="Fill-1-Copy-30" fill-opacity="0.6" fill="#FFFFFF" transform="translate(1394.500000, 200.250000) scale(-1, 1) translate(-1394.500000, -200.250000) "></path>
            <path d="M840.109487,322.578015 L840.411229,373.776359 C840.450288,380.403661 845.854441,385.744487 852.481743,385.705428 C853.496444,385.699448 854.50629,385.564789 855.487104,385.304676 L995.101969,348.278592 L994.692863,278.502724 C994.654006,271.875421 989.250016,266.53443 982.622713,266.573287 C981.607889,266.579237 980.597918,266.713897 979.616986,266.974042 L857.956902,299.238493 C847.384322,302.042359 840.045024,311.640146 840.109487,322.578015 Z" id="Fill-1-Copy-31" fill-opacity="0.2" fill="url(#linearGradient-7)" transform="translate(917.550984, 326.139296) scale(-1, -1) translate(-917.550984, -326.139296) "></path>
            <path d="M887.074986,363.54272 L887.43978,453.746565 C887.466582,460.373928 892.860848,465.72474 899.488211,465.697938 C900.510349,465.693804 901.527772,465.559093 902.515765,465.297075 L1042.10197,428.278592 L1041.66446,319.532365 C1041.6378,312.905001 1036.24364,307.554077 1029.61628,307.58074 C1028.59405,307.584853 1027.57655,307.719565 1026.58847,307.981604 L904.922622,340.247585 C894.36601,343.047215 887.030818,352.621273 887.074986,363.54272 Z" id="Fill-1-Copy-32" stroke="url(#linearGradient-8)" stroke-width="2" fill-opacity="0.4" fill="#FFFFFF" transform="translate(964.550984, 386.639296) scale(-1, -1) translate(-964.550984, -386.639296) "></path>
        </g>
    </g>
</svg>
